<svg id="Warstwa_1" data-name="Warstwa 1" xmlns="http://www.w3.org/2000/svg" viewBox="0 0 351.03 351.67"><defs><style>.cls-1{fill:#9eb384;}</style></defs><path class="cls-1" d="M523.6,19c0,16.46-.09,32.92.06,49.37,0,4.16-1.45,6.62-5.25,8.43-29.84,14.2-59.69,28.39-89.33,43-5.31,2.62-9.29,2.42-14.46-.13q-43.83-21.53-88-42.33c-4.67-2.2-6.24-5.07-6.22-10.1.15-32.91,0-65.82,0-98.73,0-2.77.95-4.93,3.47-6.07,24.77-11.27,49-23.57,73.6-35.28,7.06-3.37,14.14-6.72,21.13-10.24a7.45,7.45,0,0,1,7.1-.06Q472.85-60.38,520-37.71a5.94,5.94,0,0,1,3.7,5.89q-.06,25.43,0,50.86Zm-10.46-43c-1.13.45-1.82.69-2.47,1Q470.22-3.46,429.74,16c-2,1-2.53,2.08-2.53,4.18q.1,42.81.05,85.63v2.84a4.74,4.74,0,0,0,1-.11q41.47-20,83-39.88a2.93,2.93,0,0,0,1.92-3.12C513.13,35.84,513.14,6.18,513.14-23.95ZM416.75,109.12c0-30.32,0-60,.08-89.67,0-2.36-1.26-2.88-2.83-3.63Q374.15-3.37,334.32-22.6c-2.53-1.22-3.48-1.39-3.47,2.08q.21,42.65,0,85.29c0,2.4.86,3.48,2.9,4.44,13.25,6.27,26.46,12.65,39.67,19C387.73,95.1,402,102,416.75,109.12ZM338-32.73c11.35,5.46,22.4,10.69,33.35,16.09a5.53,5.53,0,0,0,5.47,0q38.91-18.85,77.89-37.54c1-.46,2.21-.59,2.68-2C446.21-61.52,435-66.87,423.85-72.31a3.58,3.58,0,0,0-3.49,0C393.06-59.19,365.75-46.06,338-32.73ZM386.15-9.58c11.93,5.76,23.28,11.22,34.61,16.72,1.63.79,2.88-.13,4.18-.76q39-18.72,77.95-37.49c.9-.43,2.17-.53,2.56-1.84-11-5.3-21.94-10.55-32.86-15.91a5,5,0,0,0-4.89,0c-6.11,3-12.28,6-18.43,8.92Z" transform="translate(-246.22 156.07)"/><path class="cls-1" d="M292.79,140.16q-1.94,17.29-3.89,34.71c-.45,3.92-2.79,6.07-6,5.6s-4.79-3.1-4.36-7.05q2.52-23,5-46.07c.45-4.21,2.36-6.09,6.64-5.66q23.61,2.4,47.18,5.09c3.44.39,5.34,2.86,4.92,5.8s-2.88,4.79-6.26,4.43c-9.54-1-19.07-2.07-28.61-3.1-1.43-.16-2.88-.21-5.16-.36a145.56,145.56,0,0,0,19.61,17.63c33.47,25,71.16,36,112.78,33.2,72.37-4.93,134.26-59.53,148.88-131.07a164.12,164.12,0,0,0-7.77-93.58,28.4,28.4,0,0,1-1.16-3.15c-.79-3.07.08-5.57,3.17-6.64s5.37.27,6.61,3.22a130.05,130.05,0,0,1,7.21,21.54c16.29,71.8-2.63,132.65-58.22,181-27.52,24-60.49,36.68-96.93,39.32-55.46,4-102.7-14.26-141.77-53.77a18.06,18.06,0,0,0-1.38-1.23C293.27,140,293.1,140.1,292.79,140.16Z" transform="translate(-246.22 156.07)"/><path class="cls-1" d="M551.22-99.89q1.95-17.22,3.89-34.45c.49-4.34,2.48-6.4,5.93-6s4.94,2.88,4.47,7.26Q563-109.9,560.45-86.68c-.45,4.12-2.56,6-6.76,5.54-12.14-1.29-24.27-2.67-36.41-4-3.34-.37-6.68-.73-10-1.12-3.75-.43-5.79-2.53-5.54-5.67s2.88-5.12,6.75-4.7c10.4,1.13,20.8,2.32,31.2,3.47.6.06,1.21,0,1.85,0,0-1.24-1-1.71-1.64-2.37-36-35.71-79.54-52.19-130-48.9-74.77,4.88-137.6,62-150.36,135.59a164.34,164.34,0,0,0,8.21,87.79c2,5.32,1.38,8.26-2,9.59s-5.74-.26-7.82-5.72c-35-91.93,11.35-195.2,104.11-227.55,70.18-24.47,132.81-8.88,186.3,42.84a21,21,0,0,1,2,2.64Z" transform="translate(-246.22 156.07)"/><path class="cls-1" d="M358.79,17c.78.29,1.85.62,2.85,1.09,8.76,4.15,17.52,8.3,26.24,12.53,3.73,1.8,4.92,4.5,3.51,7.43s-4.34,3.79-8,2.07c-8.86-4.22-17.7-8.5-26.55-12.75-2.63-1.27-4.25-3.2-3.56-6.23C353.91,18.56,355.83,17.26,358.79,17Z" transform="translate(-246.22 156.07)"/></svg>